<?xml version="1.0" encoding="UTF-8"?>
<svg version="1.1" xmlns="http://www.w3.org/2000/svg" width="2000" height="1591">
<path d="M0 0 C1.3473713 0.00192558 2.69474273 0.00376588 4.04211426 0.00552368 C24.85478523 0.04493996 45.40735559 0.6413515 66.0625 3.3125 C67.06694153 3.43978485 67.06694153 3.43978485 68.0916748 3.56964111 C153.87572654 14.47688298 237.89665374 44.80998093 309.0625 94.3125 C310.0819873 95.01753662 310.0819873 95.01753662 311.12207031 95.73681641 C324.55720815 105.04575035 337.50046151 114.84704652 350.0625 125.3125 C350.57280762 125.73644043 351.08311523 126.16038086 351.60888672 126.59716797 C359.10071731 132.83162839 366.38443542 139.24993605 373.52246094 145.88574219 C375.12573259 147.37108137 376.73759444 148.84660708 378.3515625 150.3203125 C386.97663272 158.20749648 395.48946168 166.16691744 403.09375 175.0625 C405.14019493 177.40129421 407.24629716 179.67302829 409.36767578 181.94360352 C415.20661637 188.19753568 420.72427947 194.62181084 426.0625 201.3125 C426.98341185 202.44219208 427.90534111 203.57105532 428.828125 204.69921875 C445.63840489 225.34141755 460.49273732 247.42597154 474.0625 270.3125 C474.53655273 271.10962402 475.01060547 271.90674805 475.49902344 272.72802734 C520.84523105 349.38038429 548.95494981 441.433111 549.265625 530.95703125 C549.27264562 532.32708265 549.27973245 533.69713371 549.28688049 535.06718445 C549.30627881 539.41979443 549.31131428 543.77235115 549.3125 548.125 C549.31294186 548.86620087 549.31338371 549.60740173 549.31383896 550.37106323 C549.32065885 572.17613265 549.02294374 593.66571203 546.0625 615.3125 C545.89280171 616.65554432 545.72489341 617.99881578 545.55859375 619.34228516 C534.05723544 711.72357557 498.4518633 801.11185897 413.2578125 911.90625 C411.39621432 913.9467206 409.57704759 916.01292151 407.765625 918.09765625 C404.15830703 922.23062024 400.44606793 926.25460282 396.6875 930.25 C395.70414673 931.29595337 395.70414673 931.29595337 394.70092773 932.36303711 C388.16080712 939.29864818 381.59150886 946.10163456 374.34765625 952.30859375 C371.99797274 954.36908545 369.71260363 956.4866656 367.42919922 958.61987305 C361.17575773 964.45781253 354.75238357 969.97492221 348.0625 975.3125 C346.93280792 976.23341185 345.80394468 977.15534111 344.67578125 978.078125 C275.65881299 1034.27898687 191.29733492 1073.41161362 17.328125 1098.515625 C15.43114868 1098.52614647 15.43114868 1098.52614647 13.49584961 1098.53688049 C9.43469347 1098.55428945 5.37368544 1098.56131517 1.3125 1098.5625 C0.27324623 1098.56316278 0.27324623 1098.56316278 -0.78700256 1098.56383896 C-22.32361116 1098.57103853 -43.55674058 1098.114364 -64.9375 1095.3125 C-66.2969309 1095.14366858 -67.65647189 1094.97572161 -69.01611328 1094.80859375 C-121.01821099 1088.34411993 -171.9785165 1074.48259717 -219.9375 1053.3125 C-220.96375488 1052.86181152 -221.99000977 1052.41112305 -223.04736328 1051.94677734 C-269.31823025 1031.49025842 -312.07782092 1004.68689109 -350.9375 972.3125 C-351.51193848 971.8371582 -352.08637695 971.36181641 -352.67822266 970.87207031 C-364.30251786 961.24522717 -375.35750709 951.07846934 -385.9375 940.3125 C-388.913486 937.32607194 -391.90375787 934.35437186 -394.8984375 931.38671875 C-396.36984884 929.9245367 -397.8412016 928.4622957 -399.3125 927 C-400.04210937 926.27876953 -400.77171875 925.55753906 -401.5234375 924.81445312 C-406.21013588 920.14867751 -410.64470113 915.34164516 -414.9375 910.3125 C-415.81489213 909.30320105 -416.69247972 908.29407196 -417.5703125 907.28515625 C-425.04662504 898.55497938 -432.04169819 889.50559229 -438.9375 880.3125 C-439.51967285 879.54067383 -440.1018457 878.76884766 -440.70166016 877.97363281 C-448.93475109 867.04268016 -456.7396811 855.95237461 -463.9375 844.3125 C-464.49518066 843.41354004 -465.05286133 842.51458008 -465.62744141 841.58837891 C-511.03290938 768.04952025 -538.37313072 687.38618553 -547.9375 593.3125 C-548.0420752 592.18859863 -548.14665039 591.06469727 -548.25439453 589.90673828 C-549.30162346 576.8210601 -549.18039129 563.68131504 -549.1875 550.5625 C-549.18850708 549.27348785 -549.18951416 547.98447571 -549.19055176 546.65640259 C-549.17967575 526.03596664 -548.42728721 505.7781216 -545.9375 485.3125 C-545.79828125 484.09111328 -545.6590625 482.86972656 -545.515625 481.61132812 C-535.32957801 393.2850966 -501.92229055 305.44050795 -449.9375 233.3125 C-449.40447266 232.56983887 -448.87144531 231.82717773 -448.32226562 231.06201172 C-440.23318776 219.82999967 -431.79641948 208.9460519 -422.9375 198.3125 C-422.4621582 197.73806152 -421.98681641 197.16362305 -421.49707031 196.57177734 C-411.56464416 184.5784944 -401.03386655 173.23578631 -389.9375 162.3125 C-387.02424654 159.40915557 -384.12470859 156.49258108 -381.23046875 153.5703125 C-379.8620318 152.19265605 -378.49354103 150.81505306 -377.125 149.4375 C-376.45146484 148.75558594 -375.77792969 148.07367188 -375.08398438 147.37109375 C-370.5380845 142.80344315 -365.8347432 138.49948546 -360.9375 134.3125 C-359.92828214 133.4350146 -358.91915914 132.55742008 -357.91015625 131.6796875 C-349.17975726 124.20318474 -340.1286089 117.21126611 -330.9375 110.3125 C-330.18162598 109.74096191 -329.42575195 109.16942383 -328.64697266 108.58056641 C-260.74550781 57.29283267 -180.58348854 22.89275955 -71.0625 4.0625 C-69.35694946 3.83578613 -69.35694946 3.83578613 -67.61694336 3.60449219 C-45.11375971 0.81031929 -22.66185394 -0.06462775 0 0 Z " fill="#FEFEFE" transform="translate(1012.9375,15.6875)"/>
<path d="M0 0 C0.69983666 -0.00350607 1.39967331 -0.00701215 2.12071714 -0.01062447 C4.4654158 -0.01992722 6.80986548 -0.01501811 9.15457439 -0.01015663 C10.8527583 -0.01389346 12.55094048 -0.01849511 14.24911994 -0.02388728 C18.91565644 -0.03612864 23.58212132 -0.03585547 28.24867022 -0.03349853 C33.28151502 -0.03309065 38.31433676 -0.04412671 43.34717083 -0.05361366 C53.20737295 -0.07023072 63.06755117 -0.07572352 72.92776612 -0.07683842 C80.94194745 -0.07778853 88.95612089 -0.08189698 96.97029972 -0.08823967 C119.68832557 -0.10585377 142.40633252 -0.11507824 165.12436525 -0.11357872 C166.96169312 -0.11345885 166.96169312 -0.11345885 168.83613873 -0.11333656 C170.67570795 -0.11321392 170.67570795 -0.11321392 172.55244019 -0.1130888 C192.43058006 -0.11227579 212.30864418 -0.13141693 232.18676213 -0.1596133 C252.59389489 -0.18833182 273.00099069 -0.20215417 293.40814418 -0.20042574 C304.86666098 -0.1997615 316.32509837 -0.20526889 327.78359699 -0.22678185 C337.53910557 -0.24498002 347.29449873 -0.24935214 357.05001692 -0.235763 C362.02733433 -0.22922658 367.00443022 -0.22914057 371.98172665 -0.2464695 C376.53968564 -0.26217526 381.097247 -0.2593621 385.65519615 -0.24190123 C387.3025433 -0.23882585 388.94991995 -0.24248401 390.59723232 -0.25362138 C400.33299018 -0.31507573 408.18858896 0.08386361 416.22749615 6.00726891 C420.97105714 12.57527643 421.2828384 19.20645993 421.2132597 27.01398277 C421.21582297 28.07437468 421.21838625 29.13476659 421.2210272 30.22729158 C421.22595481 33.76803939 421.20948856 37.30835749 421.19307232 40.84906578 C421.19222583 43.39208529 421.19270162 45.93510553 421.19439983 48.47812462 C421.19508222 53.94669083 421.18659244 59.41511952 421.16968632 64.88365746 C421.14525925 72.79012074 421.13748727 80.69653215 421.13372234 88.60302907 C421.12716366 101.43214112 421.10721836 114.2611958 421.07881451 127.09027672 C421.05125882 139.54925818 421.03003263 152.00822404 421.01729107 164.46722984 C421.0165029 165.23577291 421.01571473 166.00431599 421.01490267 166.79614824 C421.01098744 170.65187345 421.00719634 174.50759877 421.00346696 178.36332417 C420.97238923 210.3280141 420.91956936 242.29263352 420.85249615 274.25726891 C422.06594707 274.24639244 422.06594707 274.24639244 423.30391216 274.23529625 C424.37310894 274.2296566 425.44230572 274.22401695 426.5439024 274.21820641 C428.12860332 274.20732994 428.12860332 274.20732994 429.74531841 274.19623375 C435.62426812 274.31171559 439.98946411 274.57151568 444.44043159 278.59894657 C448.09958288 283.14540929 447.54124284 288.22107926 447.48068523 293.81386375 C447.48777962 294.98461974 447.49487401 296.15537572 447.50218338 297.36160916 C447.51672506 300.60326057 447.50888177 303.84396052 447.49146044 307.08556926 C447.4780804 310.58468641 447.49352597 314.08369342 447.5052824 317.58279991 C447.52366047 324.43516287 447.51514497 331.28724064 447.49719418 338.13959471 C447.48316443 343.71052415 447.47927618 349.28137621 447.48263645 354.85232162 C447.48311389 355.64543885 447.48359134 356.43855609 447.48408325 357.25570717 C447.48510959 358.8669854 447.48616495 360.47826362 447.48724901 362.08954182 C447.49581684 376.33813481 447.4791403 390.58659025 447.44941998 404.83514977 C447.42059869 418.65291692 447.41349118 432.4704858 447.42891216 446.28827477 C447.44568679 461.33955918 447.4496944 476.39074944 447.4322018 491.44203633 C447.43035746 493.04828051 447.42852273 494.65452469 447.42669773 496.26076889 C447.42578564 497.0510322 447.42487355 497.84129551 447.42393382 498.6555062 C447.41833501 504.21630702 447.42162964 509.77706179 447.42824268 515.33786011 C447.43598782 522.11984004 447.4291815 528.90162503 447.40406764 535.68356577 C447.39159787 539.14194973 447.38539495 542.60003063 447.39660931 546.0584259 C447.40530591 549.8125096 447.3893419 553.56571296 447.36715984 557.31972313 C447.37540061 558.406117 447.38364138 559.49251087 447.39213187 560.61182576 C447.30461683 568.64393132 445.66302415 574.74410891 440.60249615 581.06976891 C433.60333939 586.63727997 427.11871303 588.41051566 418.28233433 588.38869667 C417.51250489 588.3907493 416.74267545 588.39280194 415.94951785 588.39491677 C413.35473257 588.40059768 410.76000019 588.39912818 408.16520977 588.3977108 C406.29209969 588.40029382 404.41899016 588.4033068 402.54588139 588.4067142 C397.38650609 588.41479502 392.22714469 588.41657438 387.06776381 588.41731167 C381.50794157 588.41916036 375.94812658 588.4267068 370.38830853 588.43344688 C358.2250397 588.44703872 346.06177417 588.45305634 333.89849901 588.45745754 C326.30551839 588.4602187 318.71253905 588.46445584 311.11955929 588.46896172 C290.10243792 588.48115582 269.08531724 588.49149003 248.06819248 588.49483681 C246.70899348 588.49505844 245.34979447 588.49528022 243.99059547 588.49550216 C242.62811633 588.4957228 241.2656372 588.49594328 239.90315807 588.49616361 C237.16979941 588.49660616 234.43644075 588.49705327 231.70308208 588.49750328 C231.0253678 588.49761267 230.34765351 588.49772206 229.64940242 588.49783477 C207.67769391 588.50146488 185.7060184 588.5173829 163.73432252 588.54069364 C140.50311224 588.56529558 117.27192009 588.57900311 94.04069436 588.58020473 C81.37767139 588.58112183 68.71469164 588.5868829 56.05168056 588.60502434 C45.2685052 588.62041803 34.48538639 588.62555011 23.70220213 588.61728624 C18.2002689 588.61337708 12.69844959 588.61432239 7.19653034 588.62834358 C2.15801521 588.64106639 -2.88030021 588.63989911 -7.918815 588.62775287 C-9.73985917 588.62579307 -11.56091741 588.62888736 -13.38194181 588.63759723 C-35.7979036 588.73800819 -35.7979036 588.73800819 -44.6748476 581.14789391 C-49.68193148 574.71970134 -49.57779202 568.27047343 -49.53518391 560.43961143 C-49.54056944 559.25292811 -49.54595498 558.06624478 -49.55150372 556.84360135 C-49.56331083 553.56250547 -49.56172337 550.28173643 -49.55433691 547.00063777 C-49.54960012 543.4573226 -49.56211938 539.91406152 -49.57235432 536.37076378 C-49.58953591 529.43506268 -49.59038391 522.4994522 -49.58514141 515.56373535 C-49.58109838 509.92749383 -49.58254484 504.29127908 -49.58788967 498.65503883 C-49.58863809 497.85257612 -49.58938652 497.0501134 -49.59015762 496.22333363 C-49.5916891 494.59312302 -49.59322744 492.96291242 -49.59477258 491.33270182 C-49.60849455 476.05189629 -49.60306139 460.77114198 -49.59158737 445.49033763 C-49.58164857 431.50701289 -49.59460735 417.52382035 -49.61852156 403.540516 C-49.64289391 389.1811889 -49.65252545 374.82192341 -49.64586884 360.46257603 C-49.64237333 352.40127155 -49.64463087 344.34006884 -49.66211987 336.27877998 C-49.67681827 329.41877565 -49.67750803 322.5589448 -49.66004895 315.69894396 C-49.6515182 312.19850659 -49.64943962 308.69837943 -49.66470051 305.19795799 C-49.67781817 301.40532904 -49.66644363 297.61355074 -49.6487093 293.82095909 C-49.6583143 292.71192313 -49.66791931 291.60288717 -49.67781538 290.46024406 C-49.60585984 283.01252325 -49.60585984 283.01252325 -47.235075 279.10607147 C-42.02778911 274.49437547 -36.08937709 274.10193372 -29.3310976 274.18305016 C-28.17021626 274.19376549 -27.00933491 274.20448082 -25.81327534 274.21552086 C-24.93357075 274.22929771 -24.05386616 274.24307457 -23.14750385 274.25726891 C-23.14902273 273.71227053 -23.15054162 273.16727215 -23.15210652 272.60575867 C-23.24163874 240.29738783 -23.31026012 207.98904985 -23.35176517 175.68058354 C-23.35676794 171.8003834 -23.36194523 167.92018351 -23.36723042 164.03998375 C-23.36827966 163.26751301 -23.3693289 162.49504226 -23.37040994 161.69916332 C-23.38781032 149.19503331 -23.41934598 136.69097694 -23.45611504 124.1868906 C-23.49353468 111.35443575 -23.51574187 98.52201943 -23.52385783 85.68951225 C-23.5293435 77.77254458 -23.546663 69.85578505 -23.57916972 61.93888146 C-23.60283351 55.86591329 -23.60532112 49.79312379 -23.59993458 43.72010422 C-23.60103528 41.23043792 -23.60899532 38.74076375 -23.62432575 36.25114441 C-23.64423578 32.85112221 -23.6394384 29.45198955 -23.62852192 26.05194664 C-23.64017329 25.06749376 -23.65182465 24.08304089 -23.66382909 23.0687561 C-23.60542016 16.33526029 -22.38770167 10.84398569 -17.77096486 5.73351765 C-12.42764025 0.91513357 -6.98883679 0.00791242 0 0 Z " fill="#85154C" transform="translate(811.1475038528442,267.74273109436035)"/>
<path d="M0 0 C0.64976452 -0.00581376 1.29952903 -0.01162753 1.96898338 -0.01761746 C4.15564804 -0.0322656 6.3411986 -0.01831119 8.52785587 -0.00457001 C10.10754903 -0.00917707 11.6872379 -0.01552867 13.26691777 -0.02347898 C17.61514616 -0.04022257 21.96302474 -0.03190323 26.31125462 -0.01953411 C30.9977831 -0.01050635 35.68425024 -0.02444206 40.37076664 -0.0354538 C49.55482475 -0.0532684 58.73875232 -0.04938584 67.92281561 -0.03780323 C75.38550376 -0.02878018 82.84815525 -0.02754002 90.31084728 -0.0318985 C91.90231395 -0.0328179 91.90231395 -0.0328179 93.52593147 -0.03375587 C95.68110769 -0.03503474 97.83628389 -0.03633159 99.99146009 -0.03764623 C120.215259 -0.04906079 140.43898546 -0.03592489 160.66277248 -0.01444477 C178.02441719 0.00342442 195.38595492 0.00032526 212.74759769 -0.01811981 C232.89606284 -0.03951551 253.04446442 -0.04795935 273.19293934 -0.03567076 C275.34062007 -0.03439653 277.48830081 -0.03313905 279.63598156 -0.0318985 C281.22113764 -0.03097285 281.22113764 -0.03097285 282.83831708 -0.03002849 C290.29352508 -0.0265715 297.74869284 -0.03241151 305.20389462 -0.04181671 C314.28728055 -0.05302375 323.37052819 -0.05002406 332.45389824 -0.02869374 C337.090458 -0.01816546 341.72678699 -0.01409165 346.36334515 -0.02729034 C350.60539523 -0.03918355 354.84700001 -0.03270277 359.08900953 -0.01138014 C360.62597638 -0.00690095 362.16298063 -0.00920978 363.69992357 -0.01888329 C365.78542231 -0.03100548 367.86938556 -0.01861762 369.95480347 0 C371.11419967 0.00064941 372.27359587 0.00129882 373.46812528 0.00196791 C377.25407487 0.61985226 378.91640945 1.73090631 381.5403223 4.50336456 C382.17282146 6.64114606 382.17282146 6.64114606 382.18349457 8.99246025 C382.1996168 9.89195691 382.21573903 10.79145358 382.23234981 11.71820772 C382.2246068 12.70243734 382.21686379 13.68666697 382.20888615 14.70072174 C382.22021393 15.749379 382.23154171 16.79803626 382.24321276 17.87847102 C382.27494728 21.40394074 382.27076432 24.92845112 382.26664066 28.45404816 C382.28159614 30.97690326 382.29860821 33.49974689 382.31752872 36.02257538 C382.35717628 42.17099888 382.37280299 48.31906905 382.37559061 54.46760844 C382.37796623 59.46511305 382.3882389 64.46253856 382.40409374 69.46001816 C382.44812737 83.62777654 382.47119048 97.79534553 382.46744137 111.96317284 C382.4671417 113.1089027 382.4671417 113.1089027 382.46683598 114.27777863 C382.46663157 115.04253075 382.46642717 115.80728288 382.46621657 116.59520932 C382.46418405 128.99079241 382.51203516 141.38561623 382.58252781 153.78097968 C382.65433225 166.50738915 382.68887964 179.23342824 382.68455893 191.96004546 C382.68289852 199.10565413 382.69665433 206.25046681 382.75044918 213.3958931 C382.80071338 220.1154299 382.79931643 226.83300567 382.76286602 233.55272102 C382.75762551 236.02066689 382.76951925 238.48871657 382.79966831 240.95648384 C382.83814552 244.32366296 382.81515937 247.68499149 382.7765131 251.0520401 C382.80223092 252.03180828 382.82794873 253.01157647 382.85444587 254.0210346 C382.78261852 256.84712574 382.62471169 258.88835685 381.5403223 261.50336456 C378.4880898 264.17094657 375.21563922 265.83983556 371.5403223 267.50336456 C370.41110355 268.1002005 369.2818848 268.69703644 368.1184473 269.31195831 C366.47102543 270.11826691 366.47102543 270.11826691 364.7903223 270.94086456 C363.41646444 271.61892601 362.04278306 272.29734508 360.66922855 272.97602081 C359.88306156 273.3629007 359.09689457 273.74978058 358.28690434 274.14838409 C352.42490103 277.04030573 346.5762465 279.95910586 340.7278223 282.87836456 C340.06901066 283.20705536 339.41019901 283.53574615 338.73142338 283.87439728 C330.34762964 288.06000791 322.00929568 292.31674866 313.74027348 296.72553253 C306.12968604 300.76360019 298.41134278 304.5841881 290.69748783 308.41965485 C283.43417413 312.03293519 276.20007357 315.68822179 269.0403223 319.50336456 C260.67043278 323.96334122 252.1914904 328.19631052 243.70005131 332.41837311 C236.39413946 336.05282134 229.11938931 339.73283496 221.9153223 343.56586456 C218.7927139 345.21626161 215.66689842 346.86049835 212.5403223 348.50336456 C211.47378422 349.06571808 210.40724613 349.62807159 209.30838871 350.20746613 C205.79029096 352.05268753 202.26049777 353.8737321 198.7278223 355.69086456 C197.61133305 356.28069122 196.49484379 356.87051788 195.34452152 357.47821808 C194.28894047 358.01632111 193.23335941 358.55442413 192.14579105 359.10883331 C191.20888432 359.59505157 190.27197758 360.08126984 189.30667973 360.58222198 C185.07834184 361.99017529 182.05668355 361.14726847 178.0312891 359.43793488 C177.19251225 358.99030792 176.35373539 358.54268097 175.48954105 358.08148956 C174.50276371 357.56167511 173.51598637 357.04186066 172.49930668 356.50629425 C171.41971684 355.92782745 170.34012699 355.34936066 169.2278223 354.75336456 C167.43612176 353.8087673 165.64438191 352.86424286 163.85163212 351.92163849 C162.54703075 351.23562897 161.24290705 350.54871043 159.93921757 349.86096954 C152.05043359 345.70427317 144.10817163 341.6523735 136.16761112 337.59574127 C131.74121321 335.33413477 127.3165926 333.06905665 122.8918848 330.80414581 C122.01612293 330.35593979 121.14036106 329.90773376 120.23806095 329.44594574 C111.79139691 325.12208686 103.35245189 320.78329133 94.9153223 316.44086456 C81.81180827 309.69718058 68.70122809 302.96739532 55.58643436 296.24567413 C46.64958684 291.66519256 37.71469132 287.08100573 28.78641605 282.48383331 C27.99735874 282.07762756 27.20830143 281.67142181 26.39533329 281.2529068 C22.67357064 279.3368277 18.95224965 277.41990018 15.23172855 275.50141144 C13.88538969 274.80802234 12.53903628 274.1146615 11.19266605 273.42133331 C10.04789799 272.83118439 8.90312992 272.24103546 7.72367191 271.63300323 C3.92158585 269.68645315 0.10005396 267.77893646 -3.72113705 265.87026215 C-4.69442746 265.38387386 -4.69442746 265.38387386 -5.68738031 264.88765955 C-7.27807684 264.09275592 -8.86886779 263.29804125 -10.4596777 262.50336456 C-10.55118859 229.70379824 -10.62169368 196.90426496 -10.66393901 164.10460015 C-10.66894197 160.2342662 -10.67411925 156.36393251 -10.67940426 152.49359894 C-10.6804535 151.72306957 -10.68150274 150.9525402 -10.68258378 150.15866145 C-10.69999962 137.67446208 -10.73154377 125.19033622 -10.76828888 112.70618048 C-10.80566555 99.90086523 -10.8279066 87.09558854 -10.83603168 74.29022098 C-10.84152627 66.38552565 -10.85889416 58.48103808 -10.89134356 50.57640669 C-10.91494262 44.52001761 -10.91750584 38.4638081 -10.91210842 32.40736771 C-10.91321222 29.91924635 -10.92121305 27.4311174 -10.9364996 24.94304276 C-10.95630231 21.55475499 -10.95165177 18.16736749 -10.94069576 14.77906036 C-10.95234713 13.78684707 -10.96399849 12.79463377 -10.97600293 11.77235341 C-10.96803874 10.86567316 -10.96007454 9.95899291 -10.95186901 9.02483749 C-10.95338789 8.24261361 -10.95490677 7.46038973 -10.95647168 6.6544621 C-9.58803228 0.72917573 -5.43502533 0.00304473 0 0 Z " fill="#FEFDFD" transform="translate(824.459677696228,293.4966354370117)"/>
<path d="M0 0 C5.77817129 4.8025478 11.10167775 9.95606304 16.40625 15.2734375 C17.73154724 16.59729965 17.73154724 16.59729965 19.08361816 17.94790649 C21.41719483 20.28063292 23.7483335 22.61576341 26.07867432 24.95172119 C27.4973624 26.37235878 28.91798047 27.79103541 30.33935547 29.20898438 C33.09352803 31.956942 35.8441726 34.70838274 38.59375 37.4609375 C39.43248657 38.29764984 40.27122314 39.13436218 41.13537598 39.99642944 C44.67610087 43.55114523 48.15140114 47.11281344 51.41796875 50.92236328 C55.45732947 55.61389879 59.83574675 59.94871608 64.23036194 64.30552673 C65.75593977 65.81812332 67.27818086 67.33401202 68.79968262 68.85070801 C72.03028953 72.06999112 75.26483223 75.28530112 78.5 78.5 C82.25451127 82.2307565 86.00730613 85.96320751 89.75587463 89.69993591 C91.24203689 91.17970556 92.73121996 92.65638565 94.22058105 94.13293457 C98.70879577 98.60499684 103.03297938 103.12317287 107.15637207 107.93151855 C110.67961143 111.88446108 114.47112697 115.57863046 118.23036194 119.30552673 C119.75593977 120.81812332 121.27818086 122.33401202 122.79968262 123.85070801 C126.03028953 127.06999112 129.26483223 130.28530112 132.5 133.5 C136.25451127 137.2307565 140.00730613 140.96320751 143.75587463 144.69993591 C145.24203689 146.17970556 146.73121996 147.65638565 148.22058105 149.13293457 C152.85890938 153.7545702 157.36014054 158.40098966 161.5526123 163.43371582 C163.11209225 165.24417583 163.11209225 165.24417583 166 167 C166 167.66 166 168.32 166 169 C32.68 169 -100.64 169 -238 169 C-236.11541311 165.23082623 -234.59840413 163.35955469 -231.66137695 160.45019531 C-230.76316727 159.55536438 -229.86495758 158.66053345 -228.93952942 157.73858643 C-227.95580524 156.76840705 -226.97205519 155.79825391 -225.98828125 154.828125 C-224.97606704 153.82218927 -223.96437162 152.81573125 -222.95317078 151.80877686 C-220.28860986 149.15750978 -217.61854994 146.51185691 -214.94683838 143.86779785 C-210.68790993 139.65197243 -206.43553506 135.42956721 -202.18663597 131.20363617 C-200.71191967 129.73901601 -199.23376654 128.27793471 -197.75520325 126.81719971 C-193.27125726 122.36529443 -188.95635029 117.86726957 -184.84513855 113.07122803 C-181.32220369 109.11661908 -177.52960306 105.42209329 -173.76963806 101.69447327 C-172.24406023 100.18187668 -170.72181914 98.66598798 -169.20031738 97.14929199 C-165.42383018 93.38604199 -161.64186489 89.62831332 -157.86004639 85.87042236 C-154.65240132 82.68264332 -151.44690705 79.49272958 -148.24412537 76.30006409 C-146.75796311 74.82029444 -145.26878004 73.34361435 -143.77941895 71.86706543 C-139.27379646 67.37765804 -134.9293076 62.84217722 -130.78991699 58.01477051 C-127.10014211 53.86147757 -123.10162988 50.00202995 -119.15625 46.09375 C-117.7380835 44.68137068 -116.31991993 43.26898839 -114.90192413 41.85643768 C-111.93933555 38.90687976 -108.97215979 35.96193688 -106.00579834 33.01617432 C-103.55418969 30.58122894 -101.10362669 28.14525184 -98.65563965 25.70666504 C-96.82931571 23.88779387 -95.00074639 22.07117348 -93.16955566 20.25720215 C-87.45002295 14.56022085 -82.00039032 8.72775767 -76.9375 2.4375 C-75 1 -75 1 -72.1965332 1.25097656 C-69.03630654 1.99149252 -66.73983864 2.96931353 -63.91796875 4.546875 C-62.98533203 5.0625 -62.05269531 5.578125 -61.09179688 6.109375 C-60.13337891 6.65078125 -59.17496094 7.1921875 -58.1875 7.75 C-57.24068359 8.2759375 -56.29386719 8.801875 -55.31835938 9.34375 C-47.57205217 13.65140053 -47.57205217 13.65140053 -44.47119141 15.54101562 C-43.69308105 16.00701172 -42.9149707 16.47300781 -42.11328125 16.953125 C-41.43692627 17.37239258 -40.76057129 17.79166016 -40.0637207 18.22363281 C-37.29227765 19.26624359 -35.81074602 18.86515543 -33 18 C-30.5420269 16.89479456 -30.5420269 16.89479456 -28.0859375 15.48828125 C-27.15910156 14.97716797 -26.23226562 14.46605469 -25.27734375 13.93945312 C-24.31957031 13.40255859 -23.36179687 12.86566406 -22.375 12.3125 C-20.48697917 11.26692708 -18.59895833 10.22135417 -16.7109375 9.17578125 C-15.77991211 8.65709473 -14.84888672 8.1384082 -13.88964844 7.60400391 C-9.27455967 5.04223192 -4.63755867 2.52080489 0 0 Z " fill="#FEFDFD" transform="translate(1046,661)"/>
<path d="M0 0 C0.66 0 1.32 0 2 0 C2 83.82 2 167.64 2 254 C-2.51434198 250.13056402 -6.62959784 246.45155916 -10.71484375 242.22265625 C-12.55771176 240.43019146 -14.42200397 238.78230024 -16.37890625 237.12109375 C-23.5890985 230.85967694 -30.16173648 223.89123721 -36.87304688 217.10644531 C-45.62377386 208.24598135 -45.62377386 208.24598135 -54.8671875 199.91015625 C-60.94800861 194.46414614 -66.56292806 188.48192061 -72.30029297 182.67919922 C-79.91837321 174.87616484 -79.91837321 174.87616484 -87.96875 167.53125 C-95.02641293 161.53186387 -101.36426638 154.68648983 -107.87304688 148.10644531 C-116.62377386 139.24598135 -116.62377386 139.24598135 -125.8671875 130.91015625 C-131.94800861 125.46414614 -137.56292806 119.48192061 -143.30029297 113.67919922 C-145.06264181 111.89857773 -146.82721263 110.12021592 -148.59375 108.34375 C-149.15747314 107.7768042 -149.72119629 107.2098584 -150.30200195 106.62573242 C-153.8410683 103.09085246 -157.45953819 99.7149233 -161.33398438 96.54492188 C-163.48226793 94.55278554 -165.21214923 92.31541329 -167 90 C-166.14583496 89.54786133 -165.29166992 89.09572266 -164.41162109 88.62988281 C-144.15120621 77.91656647 -144.15120621 77.91656647 -124 67 C-114.34827379 61.70181051 -104.62670269 56.54006243 -94.89746094 51.38623047 C-86.57038825 46.9740088 -78.26126691 42.53470001 -70 38 C-61.12458836 33.1295122 -52.19471517 28.36650378 -43.25 23.625 C-32.84172446 18.10636768 -22.44035968 12.57566431 -12.0625 7 C-10.95487305 6.40654785 -9.84724609 5.8130957 -8.70605469 5.20166016 C-7.7009082 4.6607373 -6.69576172 4.11981445 -5.66015625 3.5625 C-4.77980713 3.08941406 -3.89945801 2.61632812 -2.99243164 2.12890625 C-1.0648097 1.1536886 -1.0648097 1.1536886 0 0 Z " fill="#FEFEFE" transform="translate(1230,562)"/>
<path d="M0 0 C10.6126667 5.30633335 21.16112396 10.66584175 31.625 16.25 C33.03350952 16.99987317 34.44203847 17.74970983 35.85058594 18.49951172 C44.54116551 23.13051816 53.20372869 27.81049839 61.83886719 32.54418945 C69.1598517 36.55437119 76.51375833 40.50188402 83.875 44.4375 C93.61690089 49.64655268 103.34370224 54.88237101 113.05322266 60.15161133 C120.44260701 64.16058867 127.84481037 68.14530707 135.25 72.125 C146.20488026 78.01464127 157.1159422 83.98060009 168 90 C166.91699761 93.24900717 166.36840631 93.74706612 163.8125 95.8125 C159.80165135 99.21564431 156.07876957 102.83365309 152.375 106.5625 C151.77969482 107.1611084 151.18438965 107.7597168 150.57104492 108.37646484 C148.71206224 110.24903839 146.85560426 112.1240789 145 114 C131.27348843 127.87680185 131.27348843 127.87680185 125.1328125 133.08984375 C119.68527636 137.96868107 114.63990499 143.30154442 109.5 148.5 C96.33466737 161.81530387 96.33466737 161.81530387 90.15039062 167.07226562 C84.69878257 171.959402 79.64595685 177.29542362 74.5 182.5 C61.33393199 195.81604763 61.33393199 195.81604763 57.03125 199.46875 C50.64474317 204.89761801 44.88989837 211.04561369 39 217 C24.97095447 231.18264822 24.97095447 231.18264822 18.81982422 236.40283203 C15.22187852 239.56056758 11.91446176 243.02305992 8.5625 246.4375 C7.14941047 247.87593642 5.73417027 249.31226442 4.31640625 250.74609375 C3.39516968 251.68473267 3.39516968 251.68473267 2.45532227 252.64233398 C1 254 1 254 0 254 C0 170.18 0 86.36 0 0 Z " fill="#FEFEFE" transform="translate(788,562)"/>
<path d="M0 0 C8.91 0 17.82 0 27 0 C27.82899705 8.64037135 28.65706805 17.28082666 29.48285294 25.92150497 C29.61882584 27.34403849 29.75484996 28.76656711 29.89092636 30.18909073 C31.45620056 46.5524734 33.00524019 62.91693411 34.4765625 79.2890625 C34.59093155 80.56009323 34.7053006 81.83112396 34.82313538 83.14067078 C35.36635533 89.1878432 35.90509268 95.23537803 36.43823242 101.28344727 C36.63192805 103.45329407 36.82569045 105.62313491 37.01953125 107.79296875 C37.10470001 108.77548615 37.18986877 109.75800354 37.27761841 110.77029419 C37.39893631 112.11992752 37.39893631 112.11992752 37.52270508 113.49682617 C37.62546501 114.66407478 37.62546501 114.66407478 37.7303009 115.85490417 C37.9960215 117.96835639 38.46671105 119.94040482 39 122 C39.05576926 121.41984886 39.11153852 120.83969772 39.16899776 120.24196625 C40.52831044 106.1022632 41.88888588 91.96268213 43.25085354 77.82323456 C43.90946985 70.98540562 44.56766433 64.14753657 45.22485352 57.30957031 C45.85924062 50.70886923 46.49481948 44.10828361 47.13112068 37.50776672 C47.37351912 34.99127491 47.6155202 32.47474478 47.85711479 29.95817566 C48.19592324 26.42969673 48.53615239 22.90135744 48.87670898 19.37304688 C49.02560326 17.8172139 49.02560326 17.8172139 49.17750549 16.22994995 C49.27143585 15.25973907 49.36536621 14.2895282 49.46214294 13.28991699 C49.54233893 12.45661613 49.62253492 11.62331528 49.70516109 10.76476288 C50.08840374 7.17102058 50.55172367 3.58621067 51 0 C61.23 0 71.46 0 82 0 C85.11453309 29.15030741 88.02612263 58.31676134 90.8125 87.5 C90.89192463 88.33183178 90.97134926 89.16366356 91.05318069 90.02070236 C92.0388217 100.34681547 93.02103896 110.67325139 94 121 C95.17890979 118.64218043 95.29720489 116.86960174 95.53785706 114.24179077 C95.63178741 113.23775711 95.72571777 112.23372345 95.82249451 111.19926453 C95.92175735 110.09371719 96.0210202 108.98816986 96.12329102 107.84912109 C96.23072632 106.68815414 96.33816162 105.52718719 96.44885254 104.33103943 C96.80436792 100.4788472 97.15414842 96.6261564 97.50390625 92.7734375 C97.74874816 90.10825349 97.99390615 87.44310047 98.23948669 84.77798462 C98.81997154 78.47076128 99.39633401 72.16316827 99.97122759 65.85543311 C100.62585567 58.67506149 101.28506122 51.49511247 101.94465744 44.3151958 C103.30154329 29.54392864 104.65205624 14.77208618 106 0 C114.25 0 122.5 0 131 0 C127.94228719 32.65721274 124.7031135 65.29575024 121.41910088 97.93083322 C120.67142217 105.36112873 119.92674759 112.7917175 119.18452388 120.22255987 C118.60172218 126.05549723 118.01629193 131.88816699 117.42883557 137.72063738 C117.0812309 141.17235325 116.73472727 144.62417085 116.39101601 148.07627678 C116.01228688 151.87928173 115.62811398 155.6817256 115.2434082 159.48413086 C115.13172806 160.61360641 115.02004791 161.74308197 114.90498352 162.90678406 C114.80000549 163.93563721 114.69502747 164.96449036 114.58686829 166.02452087 C114.49711888 166.91849547 114.40736948 167.81247007 114.3149004 168.73353481 C114 171 114 171 113 174 C101.45 174 89.9 174 78 174 C77.67201416 170.90077148 77.34402832 167.80154297 77.00610352 164.60839844 C75.92304256 154.37820719 74.83686527 144.14834858 73.74914646 133.91865158 C73.08964359 127.71529438 72.43119678 121.51182884 71.77514648 115.30810547 C71.14219994 109.32322401 70.50650154 103.33864073 69.86887932 97.35425568 C69.62588026 95.06897676 69.38387957 92.78359147 69.14288521 90.49810028 C68.80564845 87.30150757 68.46489114 84.10530863 68.12329102 80.90917969 C68.02402817 79.96043472 67.92476532 79.01168976 67.82249451 78.03419495 C67.72856415 77.16203842 67.63463379 76.2898819 67.53785706 75.39129639 C67.41756307 74.25749102 67.41756307 74.25749102 67.29483891 73.10078049 C67.00202743 71.01444579 66.54934145 69.03247315 66 67 C65.79661766 68.94438713 65.79661766 68.94438713 65.58912659 70.92805481 C64.31265704 83.12717845 63.03264775 95.32592614 61.74914646 107.52431202 C61.08935641 113.79605125 60.4308266 120.06791754 59.77514648 126.34008789 C59.14267004 132.38985066 58.50692299 138.4392615 57.86887932 144.48843956 C57.62568896 146.79964584 57.38368963 149.11097776 57.14288521 151.42243385 C56.8061459 154.65281006 56.46522493 157.88271894 56.12329102 161.11254883 C56.02402817 162.07423981 55.92476532 163.03593079 55.82249451 164.02676392 C55.72856415 164.90595993 55.63463379 165.78515594 55.53785706 166.69099426 C55.45766107 167.45516065 55.37746508 168.21932703 55.29483891 169.00664997 C55 171 55 171 54 174 C41.79 174 29.58 174 17 174 C13.11767829 138.69872031 9.47144711 103.3737768 5.88491821 68.04135132 C5.37859083 63.05386146 4.87016477 58.06659244 4.35995483 53.07949829 C3.74842421 47.10003542 3.14151502 41.12012046 2.53804207 35.13983917 C2.31170319 32.90376639 2.08385151 30.66784616 1.85439873 28.43209076 C1.53686618 25.33477863 1.22502105 22.23694293 0.91455078 19.13891602 C0.82110728 18.23991483 0.72766378 17.34091364 0.63138866 16.41466999 C0.54751557 15.56619086 0.46364248 14.71771173 0.37722778 13.84352112 C0.30390291 13.12074761 0.23057804 12.39797411 0.1550312 11.65329838 C-0.07156832 7.77513627 0 3.88477652 0 0 Z " fill="#FFFEFE" transform="translate(919,1159)"/>
<path d="M0 0 C49.5 0 99 0 150 0 C150 30.03 150 60.06 150 91 C100.5 91 51 91 0 91 C0 60.97 0 30.94 0 0 Z " fill="#85144B" transform="translate(860,438)"/>
<path d="M0 0 C96.69 0 193.38 0 293 0 C293 14.85 293 29.7 293 45 C196.31 45 99.62 45 0 45 C0 30.15 0 15.3 0 0 Z " fill="#85144B" transform="translate(860,340)"/>
<path d="M0 0 C11.55 0 23.1 0 35 0 C36.95884844 5.87654531 38.76217002 11.60782972 40.25244141 17.59326172 C40.45609818 18.39930344 40.65975494 19.20534515 40.86958313 20.03581238 C41.53341797 22.66631572 42.19248191 25.29798936 42.8515625 27.9296875 C43.3153728 29.77060155 43.77952011 31.61143072 44.24398804 33.45217896 C45.45976978 38.27363662 46.67165713 43.096064 47.88250732 47.91876221 C49.82640766 55.65840978 51.77616113 63.39658451 53.72611618 71.1347084 C54.40594071 73.83492825 55.08403668 76.53557765 55.76187134 79.23629761 C56.17665984 80.88524285 56.59148335 82.53417929 57.00634766 84.18310547 C57.19440475 84.93429153 57.38246185 85.6854776 57.57621765 86.45942688 C58.30300789 89.34377491 59.05893653 92.17680959 60 95 C60.33 63.65 60.66 32.3 61 0 C69.25 0 77.5 0 86 0 C86 57.42 86 114.84 86 174 C76.43 174 66.86 174 57 174 C56.30962646 171.32414795 55.61925293 168.6482959 54.90795898 165.89135742 C52.59713405 156.93481629 50.28613299 147.97832061 47.97505093 139.02184582 C46.5772794 133.60483569 45.17956265 128.18781144 43.78198242 122.77075195 C42.42696329 117.51866957 41.07178551 112.26662814 39.71650887 107.0146122 C39.20588883 105.035733 38.69532091 103.05684036 38.18481255 101.07793236 C34.13561144 85.38205016 30.06804483 69.69103004 26 54 C25.67 93.6 25.34 133.2 25 174 C16.75 174 8.5 174 0 174 C0 116.58 0 59.16 0 0 Z " fill="#FFFEFE" transform="translate(730,1159)"/>
<path d="M0 0 C25.32051562 -0.14850543 50.63232713 0.27791399 75.94919991 0.66168487 C82.42126021 0.75933117 88.89335637 0.85454584 95.365448 0.9500885 C107.28352535 1.12630985 119.20157139 1.30456791 131.11960463 1.48374471 C142.14329142 1.6494688 153.16698997 1.81438271 164.19070053 1.97851753 C165.29329342 1.99493601 165.29329342 1.99493601 166.41816091 2.01168617 C169.40317572 2.05613454 172.38819059 2.10057951 175.37320553 2.14501919 C203.31430804 2.56100815 231.25537432 2.97938645 259.19642442 3.39887948 C283.9194953 3.77004524 308.64259553 4.13919184 333.36572266 4.5065918 C361.23896664 4.92081231 389.11219207 5.33624816 416.98538864 5.75364786 C419.96888531 5.79832268 422.95238203 5.84299505 425.93587875 5.8876667 C426.67031363 5.89866448 427.40474852 5.90966226 428.161439 5.92099331 C439.15766515 6.08563679 450.15390428 6.2493924 461.1501503 6.41270256 C473.68889606 6.59892777 486.22762033 6.7865376 498.76631977 6.97585695 C505.14319331 7.07209051 511.52007363 7.16777528 517.89698029 7.26179123 C547.26895868 7.69528879 576.63466894 8.23470109 606 9 C606.02709444 11.08326131 606.04643873 13.16662441 606.0625 15.25 C606.07410156 16.41015625 606.08570313 17.5703125 606.09765625 18.765625 C606.01682882 21.44262939 605.69888645 23.45595658 605 26 C570.31506971 26.09895938 535.64712676 25.87327592 500.9664284 25.33831513 C495.15977088 25.24955383 489.35305785 25.16462313 483.54634617 25.07949115 C470.9959962 24.89534368 458.44571518 24.70681745 445.89546114 24.51625529 C434.93273249 24.34981071 423.96998178 24.18491856 413.00720787 24.02148247 C412.27315414 24.01053682 411.5391004 23.99959117 410.78280261 23.98831383 C407.80161495 23.94386208 404.8204272 23.89941654 401.8392393 23.85498081 C374.0510037 23.44076057 346.26283795 23.02201672 318.47470275 22.60112052 C293.84850598 22.22814459 269.22225292 21.85912236 244.59594727 21.4934082 C216.79780937 21.08057577 188.99970827 20.66539178 161.2016632 20.24635214 C158.2375223 20.20167527 155.27338133 20.15700345 152.30924034 20.1123333 C151.57961612 20.10133552 150.8499919 20.09033774 150.09825785 20.07900669 C139.12479508 19.91364023 128.15130697 19.75003623 117.17780495 19.58729744 C104.7165441 19.40248274 92.25532732 19.21495553 79.79415683 19.02414305 C73.44642379 18.92700642 67.09867918 18.83101297 60.7508812 18.73820877 C54.93242271 18.65310926 49.11402624 18.56459232 43.2956595 18.4734413 C41.20072491 18.44120238 39.1057713 18.41016932 37.01079843 18.38052178 C24.6452528 18.20471282 12.34410679 17.76705932 0 17 C0 11.39 0 5.78 0 0 Z " fill="#FFFFFF" transform="translate(1367,1529)"/>
<path d="M0 0 C37.83253941 -0.09440849 75.64709327 0.08102483 113.4761771 0.66168487 C119.34255828 0.75080255 125.20900281 0.83553163 131.07544509 0.92050885 C143.74136031 1.10414711 156.4071973 1.2927616 169.07300367 1.48374471 C180.12457764 1.65037563 191.17617602 1.81526173 202.22780037 1.97851753 C202.96859107 1.98946318 203.70938177 2.00040883 204.47262068 2.01168617 C207.48116045 2.05613816 210.48970031 2.10058386 213.49824033 2.14501919 C241.50322285 2.55867863 269.50812517 2.97755219 297.51299327 3.39887948 C322.35519537 3.77259175 347.19746413 4.14153633 372.03979492 4.5065918 C400.0854598 4.91873589 428.13107869 5.33381518 456.1766296 5.75364786 C459.16177522 5.79832659 462.14692095 5.84299816 465.13206673 5.8876667 C465.86686062 5.89866448 466.60165452 5.90966226 467.3587149 5.92099331 C478.43734762 6.08675751 489.51601198 6.25027933 500.59469414 6.41270256 C513.15273294 6.59682704 525.71071713 6.78427418 538.26864444 6.97585695 C544.6716481 7.07345907 551.07466497 7.16958993 557.47774887 7.26179123 C563.3322816 7.34613485 569.18673552 7.43465237 575.04115427 7.5265587 C577.16254928 7.55912158 579.2839687 7.59013642 581.4054107 7.61947822 C584.28034295 7.6594692 587.15513451 7.70502583 590.02995968 7.75201321 C591.27486828 7.76732483 591.27486828 7.76732483 592.54492655 7.78294578 C593.69847527 7.80351773 593.69847527 7.80351773 594.875328 7.82450527 C595.53208461 7.83433205 596.18884121 7.84415883 596.86549952 7.85428339 C599.59740413 8.04078317 602.29899389 8.54983231 605 9 C605 14.61 605 20.22 605 26 C590.84278845 26.04122702 576.69348513 25.91893031 562.53804016 25.70301819 C560.34068505 25.67060702 558.14332802 25.63832558 555.94596928 25.60616106 C549.96309099 25.51821084 543.98024148 25.42842624 537.9973954 25.33831513 C531.52164581 25.2411063 525.04587074 25.14562289 518.57009888 25.0499115 C506.62878483 24.8732163 494.687493 24.69506027 482.74621038 24.51625529 C471.69371701 24.35076361 460.64121528 24.18584504 449.58870506 24.02148247 C448.85272275 24.01053682 448.11674043 23.99959117 447.35845562 23.98831383 C444.36980197 23.94386666 441.38114829 23.89942187 438.39249455 23.85498081 C410.38022621 23.4384308 382.36798365 23.02017021 354.3557526 22.60112052 C329.58020645 22.23050023 304.80463917 21.86132518 280.02905273 21.4934082 C252.10856144 21.07878379 224.18808354 20.66327485 196.26762646 20.24635214 C193.27573504 20.20167779 190.28384359 20.15700526 187.29195213 20.1123333 C186.55543406 20.10133552 185.81891599 20.09033774 185.06007918 20.07900669 C174.04662011 19.91456641 163.0331516 19.75076907 152.01967812 19.58729744 C139.44581103 19.40066035 126.87195938 19.21301559 114.29812566 19.02414305 C107.90625993 18.92816609 101.51438913 18.83257923 95.12249947 18.73820877 C63.07916843 18.26475269 31.0394033 17.69098011 -1 17 C-1.02709444 14.91673869 -1.04643873 12.83337559 -1.0625 10.75 C-1.07410156 9.58984375 -1.08570312 8.4296875 -1.09765625 7.234375 C-1.01682882 4.55737061 -0.69888645 2.54404342 0 0 Z " fill="#FFFFFF" transform="translate(28,1512)"/>
<path d="M0 0 C7.67625101 6.48282235 11.61016617 15.88352435 13.03515625 25.71875 C13.14856852 28.82464175 13.12929288 31.92386065 13.09765625 35.03125 C13.07703125 37.898125 13.05640625 40.765 13.03515625 43.71875 C4.45515625 43.71875 -4.12484375 43.71875 -12.96484375 43.71875 C-13.77734375 35.53125 -13.77734375 35.53125 -14.01098633 32.97973633 C-14.49176 28.55924577 -15.15828111 25.32718768 -17.96484375 21.71875 C-22.32316919 18.81319971 -25.42918573 18.48045824 -30.58984375 19.28125 C-34.83395188 21.08892568 -35.97418969 22.58431464 -37.96484375 26.71875 C-39.89091961 34.97336084 -38.39447154 43.22030114 -34.34375 50.6640625 C-27.97912977 60.14788755 -18.79191238 68.76917885 -10.02734375 76.03125 C2.78417829 87.07207387 12.25661431 101.38356492 13.91015625 118.5390625 C14.78907542 133.86521553 13.17479578 147.545321 3.66015625 160.15625 C-4.2427418 167.87098381 -13.86220975 171.08020357 -24.8203125 171.12890625 C-25.69300781 171.11730469 -26.56570313 171.10570312 -27.46484375 171.09375 C-28.33753906 171.10535156 -29.21023438 171.11695313 -30.109375 171.12890625 C-40.16999982 171.08419236 -49.33498566 168.4568065 -56.96484375 161.71875 C-64.21936598 153.43591685 -68.13022457 143.67582417 -68.0625 132.63671875 C-68.06000244 131.7964917 -68.05750488 130.95626465 -68.05493164 130.09057617 C-68.04127563 128.51433472 -68.04127563 128.51433472 -68.02734375 126.90625 C-68.00671875 123.544375 -67.98609375 120.1825 -67.96484375 116.71875 C-59.38484375 116.71875 -50.80484375 116.71875 -41.96484375 116.71875 C-41.21484375 126.34375 -41.21484375 126.34375 -41.00878906 129.34228516 C-40.50823418 134.94464937 -39.6154813 138.38924627 -35.96484375 142.71875 C-32.14864663 145.22653668 -28.48215765 144.8958436 -24.1171875 144.2421875 C-20.7546353 143.42443433 -19.17342668 142.39582022 -16.96484375 139.71875 C-13.64820443 131.70214942 -14.70500264 122.65915502 -17.52734375 114.65625 C-22.37715478 103.63078032 -32.06002586 94.91271675 -41.02734375 87.15625 C-56.63446823 73.65484867 -66.31991082 58.89011843 -68.21484375 37.95703125 C-68.27791035 35.50925874 -68.17878631 33.1576952 -67.96484375 30.71875 C-67.88363281 29.77644531 -67.80242187 28.83414062 -67.71875 27.86328125 C-66.38363376 17.22364355 -61.87578933 6.12326475 -53.2265625 -0.640625 C-38.09748022 -10.94901773 -14.81840952 -10.66298251 0 0 Z " fill="#FFFEFE" transform="translate(1125.96484375,1164.28125)"/>
<path d="M0 0 C24.75 0 49.5 0 75 0 C75 8.58 75 17.16 75 26 C59.49 26 43.98 26 28 26 C28 40.85 28 55.7 28 71 C40.21 71 52.42 71 65 71 C65 79.25 65 87.5 65 96 C52.79 96 40.58 96 28 96 C28 113.16 28 130.32 28 148 C43.51 148 59.02 148 75 148 C75 156.58 75 165.16 75 174 C50.25 174 25.5 174 0 174 C0 116.58 0 59.16 0 0 Z " fill="#FFFEFE" transform="translate(836,1159)"/>
<path d="M0 0 C9.9 0 19.8 0 30 0 C31.82337891 6.37119141 31.82337891 6.37119141 33.68359375 12.87109375 C34.65238297 16.24924131 35.62183133 19.62719814 36.59172821 23.00502777 C37.61665987 26.57521039 38.6404165 30.14572053 39.66137695 33.71704102 C40.64406467 37.1543148 41.62992538 40.5906636 42.61802864 44.02638435 C42.9951591 45.33982714 43.37112906 46.6536037 43.74593925 47.96771049 C44.26956364 49.80282969 44.79763381 51.6366786 45.32592773 53.47045898 C45.6257103 54.51636703 45.92549286 55.56227509 46.23435974 56.63987732 C46.78031907 58.93178698 46.78031907 58.93178698 48 60 C48.31613503 58.91671921 48.31613503 58.91671921 48.63865662 57.81155396 C50.62312281 51.01275948 52.60941208 44.21450096 54.59776211 37.41684151 C55.61997834 33.92190618 56.6414831 30.42676616 57.66137695 26.93115234 C58.64526272 23.55905018 59.63099763 20.1874937 60.61802864 16.81631088 C61.17823827 14.90112128 61.73652081 12.98536832 62.29478455 11.0696106 C62.6350618 9.90855804 62.97533905 8.74750549 63.32592773 7.55126953 C63.6257103 6.52534698 63.92549286 5.49942444 64.23435974 4.44241333 C65 2 65 2 66 0 C74.91 0 83.82 0 93 0 C92.21546208 5.49176542 91.1441785 9.79277235 89.1484375 14.83447266 C88.54415932 16.40524102 87.94097237 17.9764295 87.3387146 19.54797363 C87.01881939 20.37801407 86.69892418 21.2080545 86.36933517 22.06324768 C71.30875064 61.45619327 58.93196122 98.56942932 59.625 141.125 C59.63865601 141.96917732 59.65231201 142.81335464 59.66638184 143.6831131 C59.85376244 153.81550631 60.3812917 163.87515675 61 174 C51.43 174 41.86 174 32 174 C32.06396973 171.98575928 32.12793945 169.97151855 32.19384766 167.89624023 C33.43049717 125.17116707 31.54058242 89.12663822 15.36621094 49.00292969 C11.93291166 40.4292484 9.08117045 31.66600807 6.2208252 22.88833618 C5.40061334 20.39050164 4.55947504 17.90084467 3.70996094 15.4128418 C3.45515961 14.66066376 3.20035828 13.90848572 2.93783569 13.1335144 C2.47003501 11.75293381 1.99850796 10.37360735 1.52236938 8.99588013 C0.43734696 5.75751296 0 3.47705637 0 0 Z " fill="#FFFEFE" transform="translate(1210,1159)"/>
<path d="M0 0 C9.24 0 18.48 0 28 0 C28 48.84 28 97.68 28 148 C42.85 148 57.7 148 73 148 C73 156.58 73 165.16 73 174 C48.91 174 24.82 174 0 174 C0 116.58 0 59.16 0 0 Z " fill="#FFFFFF" transform="translate(1154,1159)"/>
<path d="M0 0 C42.9 0 85.8 0 130 0 C130 8.58 130 17.16 130 26 C87.1 26 44.2 26 0 26 C0 17.42 0 8.84 0 0 Z " fill="#85154C" transform="translate(1023,438)"/>
<path d="M0 0 C38.61 0 77.22 0 117 0 C117 8.58 117 17.16 117 26 C78.39 26 39.78 26 0 26 C0 17.42 0 8.84 0 0 Z " fill="#85144B" transform="translate(1023,503)"/>
<path d="M0 0 C43.23 0 86.46 0 131 0 C127.75485351 3.24514649 125.43906244 5.125071 121.59765625 7.390625 C120.54126953 8.01839844 119.48488281 8.64617188 118.39648438 9.29296875 C117.29626953 9.93878906 116.19605469 10.58460938 115.0625 11.25 C112.90708591 12.52525407 110.75213903 13.80129815 108.59765625 15.078125 C107.49599121 15.71282715 106.39432617 16.3475293 105.25927734 17.00146484 C101.98511144 18.92690041 101.98511144 18.92690041 99.11962891 21.23681641 C89.4586911 28.41419799 80.1146808 28.16619491 68.43310547 27.93310547 C65.2410692 27.87483697 62.05562935 27.89200674 58.86328125 27.91796875 C56.80986392 27.90549941 54.75646727 27.88872172 52.703125 27.8671875 C51.29187347 27.87599442 51.29187347 27.87599442 49.85211182 27.88497925 C42.64973288 27.68158927 38.63777548 25.30450304 33 21 C31.84025959 20.25106841 30.67006901 19.51792288 29.48730469 18.8059082 C27.77890779 17.77269291 26.07056557 16.73938623 24.36309814 15.70463562 C22.49319251 14.57204863 20.62163433 13.44222741 18.75 12.3125 C17.48426495 11.54640575 16.21863926 10.78013078 14.953125 10.01367188 C8.55477531 6.12722892 8.55477531 6.12722892 2.10644531 2.32495117 C1.41131836 1.88771729 0.71619141 1.4504834 0 1 C0 0.67 0 0.34 0 0 Z " fill="#891C51" transform="translate(944,594)"/>
<path d="M0 0 C28.05 0 56.1 0 85 0 C85 8.91 85 17.82 85 27 C56.95 27 28.9 27 0 27 C0 18.09 0 9.18 0 0 Z " fill="#891B51" transform="translate(1023,470)"/>
<path d="M0 0 C1.98 0.99 1.98 0.99 4 2 C4.5775 1.71125 5.155 1.4225 5.75 1.125 C9.08239464 -0.54119732 12.37918204 -0.49472562 16 0 C19 1.5 19 1.5 21 3 C21.474375 2.505 21.94875 2.01 22.4375 1.5 C26.24549707 -0.72907146 29.69429609 -0.80452599 34 0 C37.0047899 1.57096899 39.45520986 3.49840044 40.65014648 6.79199219 C41.09209618 9.58124067 41.11150208 12.25357617 41.09765625 15.078125 C41.09443359 16.23828125 41.09121094 17.3984375 41.08789062 18.59375 C41.07532227 20.40359375 41.07532227 20.40359375 41.0625 22.25 C41.05798828 23.47203125 41.05347656 24.6940625 41.04882812 25.953125 C41.03704815 28.96879946 41.02059853 31.98437498 41 35 C39.02 35 37.04 35 35 35 C34.97494385 34.15703369 34.9498877 33.31406738 34.92407227 32.44555664 C34.82911845 29.32758326 34.72987552 26.20978497 34.62768555 23.09204102 C34.58428777 21.74085853 34.5426163 20.38961947 34.50268555 19.03833008 C34.44510048 17.09963299 34.38085702 15.16113724 34.31640625 13.22265625 C34.26141968 11.47094116 34.26141968 11.47094116 34.20532227 9.68383789 C34.29923812 7.08220205 34.29923812 7.08220205 33 6 C31.12678052 5.83946185 31.12678052 5.83946185 29 5.875 C28.278125 5.87242188 27.55625 5.86984375 26.8125 5.8671875 C24.97910585 5.80304724 24.97910585 5.80304724 24 7 C23.8415735 9.0708472 23.74875578 11.14678029 23.68359375 13.22265625 C23.64169922 14.48271484 23.59980469 15.74277344 23.55664062 17.04101562 C23.51682404 18.38150736 23.47711186 19.7220022 23.4375 21.0625 C23.39431958 22.40691523 23.35070544 23.7513166 23.30664062 25.09570312 C23.20014642 28.3970234 23.0981354 31.69842236 23 35 C21.35 35 19.7 35 18 35 C17.98018066 34.26362305 17.96036133 33.52724609 17.93994141 32.76855469 C17.84462172 29.42867944 17.73497004 26.08942361 17.625 22.75 C17.5940625 21.59113281 17.563125 20.43226562 17.53125 19.23828125 C17.49257813 18.12324219 17.45390625 17.00820312 17.4140625 15.859375 C17.3826416 14.83295898 17.3512207 13.80654297 17.31884766 12.74902344 C17.00363375 10.03132927 16.38967649 8.33075565 15 6 C10.99745544 5.90818866 10.99745544 5.90818866 7 6 C5.16780354 7.83219646 5.76098672 10.75713741 5.68359375 13.22265625 C5.64169922 14.48271484 5.59980469 15.74277344 5.55664062 17.04101562 C5.51682404 18.38150736 5.47711186 19.7220022 5.4375 21.0625 C5.39431958 22.40691523 5.35070544 23.7513166 5.30664062 25.09570312 C5.20014642 28.3970234 5.0981354 31.69842236 5 35 C3.35 35 1.7 35 0 35 C0 23.45 0 11.9 0 0 Z " fill="#D493B3" transform="translate(910,1523)"/>
<path d="M0 0 C2.9375 1.3125 2.9375 1.3125 5 3 C5.5775 3.391875 6.155 3.78375 6.75 4.1875 C8.82069194 7.19000331 8.7054601 10.4066132 9 14 C7.35 14.33 5.7 14.66 4 15 C3.566875 13.88625 3.13375 12.7725 2.6875 11.625 C1.30088881 7.82487666 1.30088881 7.82487666 -2 6 C-5.26606297 5.65254649 -7.36577208 5.71626646 -10.375 7.0625 C-12.31137308 9.02651521 -12.31137308 9.02651521 -12.5 12.4375 C-11.91245371 16.62376732 -11.16632716 17.35335767 -8 20 C-5.37966852 21.3528197 -5.37966852 21.3528197 -2.5625 22.4375 C2.61029696 24.6751318 6.40096107 26.80192214 9 32 C9.41849303 36.5470877 9.53618367 40.67365093 7.8125 44.9375 C5.00579103 48.13134124 2.3327006 49.80090206 -1.90234375 50.43359375 C-8.23895431 50.44174898 -12.24975304 50.37522746 -17 46 C-19.67927341 41.98108988 -19.15601248 39.75838077 -19 35 C-17.35 35 -15.7 35 -14 35 C-13.731875 36.11375 -13.46375 37.2275 -13.1875 38.375 C-12.34190981 42.21840951 -12.34190981 42.21840951 -9 44 C-3.40914327 44.60375799 -3.40914327 44.60375799 1.5 42.375 C3.48198314 39.23686002 3.67064058 37.65126535 3 34 C-0.50861015 28.86239228 -5.42850427 27.43003632 -11.16015625 25.40625 C-14.51391927 23.74551453 -15.98384301 22.13157717 -18 19 C-19.37312417 14.68553881 -19.31437353 10.98010572 -17.9375 6.6875 C-13.14770792 0.04359486 -7.77917881 -1.09272746 0 0 Z " fill="#D595B4" transform="translate(680,1509)"/>
<path d="M0 0 C2.98378244 2.06023073 4.22727689 3.4734948 5.625 6.8125 C5.8125 10.125 5.8125 10.125 5.625 12.8125 C3.975 13.1425 2.325 13.4725 0.625 13.8125 C0.356875 12.69875 0.08875 11.585 -0.1875 10.4375 C-1.03309019 6.59409049 -1.03309019 6.59409049 -4.375 4.8125 C-8.28554241 4.38589537 -10.49530578 4.22603719 -13.8125 6.4375 C-15.85991197 9.5495662 -16.06051032 11.15644496 -15.375 14.8125 C-11.16298177 18.72692999 -6.39884245 20.80548936 -1.21484375 23.15234375 C1.96083258 25.00882579 3.60337282 26.75666077 5.625 29.8125 C7.07273642 35.79647721 6.876842 39.35779729 3.625 44.8125 C-0.03187084 48.37794907 -2.98225411 49.08993822 -7.9375 49.25 C-12.20254361 49.08796306 -15.02347913 48.64034574 -18.375 45.8125 C-18.89707031 45.379375 -19.41914062 44.94625 -19.95703125 44.5 C-21.76811534 42.34466025 -21.86096128 40.9062343 -22.0625 38.125 C-22.12824219 37.31675781 -22.19398437 36.50851562 -22.26171875 35.67578125 C-22.29910156 35.06089844 -22.33648438 34.44601562 -22.375 33.8125 C-20.725 33.8125 -19.075 33.8125 -17.375 33.8125 C-17.26542969 34.37839844 -17.15585938 34.94429687 -17.04296875 35.52734375 C-16.88441406 36.26082031 -16.72585938 36.99429687 -16.5625 37.75 C-16.41167969 38.48089844 -16.26085938 39.21179687 -16.10546875 39.96484375 C-15.86441406 40.57457031 -15.62335938 41.18429687 -15.375 41.8125 C-10.77673855 43.34525382 -6.37173909 43.61119564 -1.875 41.8125 C0.07897825 39.20719567 0.25401481 36.94706229 0.0546875 33.734375 C-0.26889637 31.60317305 -0.26889637 31.60317305 -2.1875 29.625 C-5.93086648 27.49641906 -9.77201955 25.79097741 -13.75390625 24.15625 C-17.21276284 22.38300609 -19.6266095 20.30928101 -21.375 16.8125 C-21.92423479 11.80635993 -21.89516569 7.89136216 -19.6875 3.3125 C-14.40195836 -2.40159907 -7.05740302 -2.48316032 0 0 Z " fill="#D594B3" transform="translate(1072.375,1510.1875)"/>
<path d="M0 0 C1.98 0 3.96 0 6 0 C6 15.84 6 31.68 6 48 C4.02 47.67 2.04 47.34 0 47 C-0.99 47.66 -1.98 48.32 -3 49 C-8.35002483 49.43145362 -11.64735364 49.45651329 -16 46 C-19.09900079 41.35149881 -18.36857454 36.5930658 -18.375 31.125 C-18.39949219 30.03574219 -18.42398438 28.94648437 -18.44921875 27.82421875 C-18.4786627 19.80565038 -18.4786627 19.80565038 -16.1015625 15.8046875 C-12.8965737 13.05244805 -11.08848935 12.86305471 -6.9375 12.875 C-6.03902344 12.87242188 -5.14054688 12.86984375 -4.21484375 12.8671875 C-2 13 -2 13 -1 14 C-0.67 9.38 -0.34 4.76 0 0 Z M-11 18 C-13.84799817 22.27199725 -13.33018316 25.97798285 -13.3125 31 C-13.32861328 31.91523437 -13.34472656 32.83046875 -13.36132812 33.7734375 C-13.36197266 34.65257812 -13.36261719 35.53171875 -13.36328125 36.4375 C-13.36626221 37.24058594 -13.36924316 38.04367187 -13.37231445 38.87109375 C-12.90588337 41.538162 -12.17351788 42.41812201 -10 44 C-5.63293092 44.38991688 -3.69486103 44.46324069 0 42 C0.44878095 39.71197401 0.44878095 39.71197401 0.36328125 37.0625 C0.36263672 36.08539062 0.36199219 35.10828125 0.36132812 34.1015625 C0.34521484 33.07804687 0.32910156 32.05453125 0.3125 31 C0.31572266 29.97648437 0.31894531 28.95296875 0.32226562 27.8984375 C0.64313926 22.39932866 0.64313926 22.39932866 -2 18 C-4.13818461 17.64390808 -4.13818461 17.64390808 -6.5 17.6875 C-7.2940625 17.67074219 -8.088125 17.65398437 -8.90625 17.63671875 C-9.94265625 17.81654297 -9.94265625 17.81654297 -11 18 Z " fill="#D493B4" transform="translate(1007,1510)"/>
<path d="M0 0 C1.32 0 2.64 0 4 0 C5.85904534 6.19076352 7.70957623 12.38402552 9.55419922 18.57910156 C10.18277178 20.6864584 10.81329391 22.79323474 11.44580078 24.89941406 C12.35441592 27.92622933 13.25600809 30.95506036 14.15625 33.984375 C14.44060913 34.92617615 14.72496826 35.86797729 15.01794434 36.83831787 C15.27821411 37.71892883 15.53848389 38.59953979 15.80664062 39.50683594 C16.03758423 40.27960876 16.26852783 41.05238159 16.50646973 41.84857178 C17 44 17 44 17 48 C15.35 48 13.7 48 12 48 C11.49632243 46.54293274 10.99717444 45.08429904 10.5 43.625 C10.2215625 42.81289062 9.943125 42.00078125 9.65625 41.1640625 C9 39 9 39 9 37 C4.38 37.33 -0.24 37.66 -5 38 C-5.99 41.3 -6.98 44.6 -8 48 C-9.98 48 -11.96 48 -14 48 C-10.56280069 35.68158054 -7.1188989 23.36497619 -3.625 11.0625 C-3.37476074 10.17602783 -3.12452148 9.28955566 -2.86669922 8.3762207 C-2.6348291 7.56241943 -2.40295898 6.74861816 -2.1640625 5.91015625 C-1.96248535 5.19996338 -1.7609082 4.48977051 -1.55322266 3.75805664 C-1 2 -1 2 0 0 Z M1 14 C-0.65 19.94 -2.3 25.88 -4 32 C-0.37 32 3.26 32 7 32 C5.85440314 25.65515584 4.43143813 19.96807541 2 14 C1.67 14 1.34 14 1 14 Z " fill="#D594B4" transform="translate(1193,1510)"/>
<path d="M0 0 C1.65 0 3.3 0 5 0 C5 15.84 5 31.68 5 48 C3.35 47.67 1.7 47.34 0 47 C-0.598125 47.309375 -1.19625 47.61875 -1.8125 47.9375 C-5.75207906 49.85100983 -10.16953903 49.5441911 -14.3125 48.3125 C-17.34675081 45.95252715 -18.80918105 43.48277463 -19.30541992 39.62670898 C-19.4403902 36.76611027 -19.45820987 33.92611036 -19.4375 31.0625 C-19.45748047 30.08603516 -19.47746094 29.10957031 -19.49804688 28.10351562 C-19.49397884 22.10315856 -19.0248492 18.54950366 -15 14 C-12.51245214 12.75622607 -10.77344699 12.86693765 -8 12.875 C-7.113125 12.87242188 -6.22625 12.86984375 -5.3125 12.8671875 C-3 13 -3 13 -1 14 C-0.67 9.38 -0.34 4.76 0 0 Z M-12.7265625 19.46875 C-14.63825971 23.26868802 -14.43529219 26.80634332 -14.375 31 C-14.38660156 31.80695313 -14.39820313 32.61390625 -14.41015625 33.4453125 C-14.39287051 36.93703236 -14.31146378 39.38089407 -12.7265625 42.53125 C-10.66501909 44.28496113 -9.68382312 44.54066399 -7 44.5 C-6.319375 44.5103125 -5.63875 44.520625 -4.9375 44.53125 C-2.89069194 44.11705457 -2.89069194 44.11705457 -1.2734375 42.53125 C0.63825971 38.73131198 0.43529219 35.19365668 0.375 31 C0.38660156 30.19304687 0.39820313 29.38609375 0.41015625 28.5546875 C0.39287051 25.06296764 0.31146378 22.61910593 -1.2734375 19.46875 C-3.33498091 17.71503887 -4.31617688 17.45933601 -7 17.5 C-8.0209375 17.48453125 -8.0209375 17.48453125 -9.0625 17.46875 C-11.10930806 17.88294543 -11.10930806 17.88294543 -12.7265625 19.46875 Z " fill="#D593B3" transform="translate(1326,1510)"/>
<path d="M0 0 C3.13070214 1.51095663 5.45904212 3.4525326 6.64453125 6.84375 C7.30981567 10.87932144 7.05369123 14.91946639 7 19 C0.73 19 -5.54 19 -12 19 C-12.01512945 27.40133391 -12.01512945 27.40133391 -9 30 C-4.34805286 30.34216235 -4.34805286 30.34216235 0 29 C0.65772428 25.97065509 0.65772428 25.97065509 1 23 C2.98 23.33 4.96 23.66 7 24 C5.69189189 31.13513514 5.69189189 31.13513514 3 34.5 C-1.34897456 36.67448728 -5.22698339 36.65942993 -10 36 C-13.68623011 34.38727433 -14.75355 33.369675 -17 30 C-17.4648447 26.05702323 -17.37033791 22.09243699 -17.375 18.125 C-17.39949219 17.03574219 -17.42398438 15.94648437 -17.44921875 14.82421875 C-17.4786627 6.80565038 -17.4786627 6.80565038 -15.1015625 2.8046875 C-10.63620438 -1.02987653 -5.66069015 -0.71755227 0 0 Z M-11 6.0625 C-12.52690415 9.02087678 -12.18468872 11.73716599 -12 15 C-7.71 15 -3.42 15 1 15 C1.04125 13.72125 1.0825 12.4425 1.125 11.125 C1.15980469 10.04605469 1.15980469 10.04605469 1.1953125 8.9453125 C1.18331689 6.76136355 1.18331689 6.76136355 -1 5 C-6.20389101 4.4909386 -6.20389101 4.4909386 -11 6.0625 Z " fill="#D594B3" transform="translate(975,1523)"/>
<path d="M0 0 C2.97361086 2.21563162 4.36959793 3.73919585 6 7 C6.13860991 11.00305407 6.04262206 14.99352624 6 19 C-0.27 19 -6.54 19 -13 19 C-12.690625 20.629375 -12.38125 22.25875 -12.0625 23.9375 C-11.80146484 25.31228516 -11.80146484 25.31228516 -11.53515625 26.71484375 C-11.22285012 28.95289844 -11.22285012 28.95289844 -10 30 C-7.32941149 30.14115161 -4.67567762 30.04247107 -2 30 C-1.01 27.69 -0.02 25.38 1 23 C2.65 23.33 4.3 23.66 6 24 C5.50958904 30.37534247 5.50958904 30.37534247 3.0625 33.375 C-0.72851461 36.36186 -3.72517916 36.38965138 -8.44921875 36.35546875 C-12.5941459 35.7778449 -14.21978497 34.06536529 -17 31 C-18.47410198 26.57769405 -18.22495829 22.25771583 -18.25 17.625 C-18.270625 16.67882813 -18.29125 15.73265625 -18.3125 14.7578125 C-18.36201971 5.9433035 -18.36201971 5.9433035 -15 2 C-10.34186237 -1.10542508 -5.45168836 -0.74307763 0 0 Z M-12 6.625 C-13.388057 9.49214521 -13.388057 9.49214521 -13 15 C-8.38 15 -3.76 15 1 15 C1.53508341 8.67333319 1.53508341 8.67333319 0 6.0625 C-3.9201824 3.9799031 -8.50229013 3.78311073 -12 6.625 Z " fill="#D594B3" transform="translate(1263,1523)"/>
<path d="M0 0 C2.89683868 2.2015974 4.39297231 3.78594462 6 7 C6.08543895 9.10528933 6.10714725 11.21331157 6.09765625 13.3203125 C6.09443359 14.57714844 6.09121094 15.83398438 6.08789062 17.12890625 C6.07951172 18.44761719 6.07113281 19.76632812 6.0625 21.125 C6.05748489 22.46484211 6.05292201 23.804686 6.04882812 25.14453125 C6.03701086 28.42973206 6.02053617 31.71484397 6 35 C5.21238281 34.81566406 4.42476562 34.63132812 3.61328125 34.44140625 C1.05698979 33.74042177 1.05698979 33.74042177 -0.8125 34.9375 C-4.13099205 36.549339 -7.41475214 36.46330241 -11 36 C-13.87472735 34.75011855 -15.44101438 33.74531416 -17.3125 31.25 C-18.63780889 26.91262545 -18.60880922 23.30459119 -16.6875 19.1875 C-15 17 -15 17 -12 15 C-8.86328125 14.8046875 -8.86328125 14.8046875 -5.3125 14.875 C-4.13300781 14.89304687 -2.95351562 14.91109375 -1.73828125 14.9296875 C-0.38283203 14.96449219 -0.38283203 14.96449219 1 15 C0.69181644 13.68647977 0.37832335 12.37420428 0.0625 11.0625 C-0.11152344 10.33160156 -0.28554687 9.60070313 -0.46484375 8.84765625 C-0.83887569 7.00030102 -0.83887569 7.00030102 -2 6 C-4.67058851 5.85884839 -7.32432238 5.95752893 -10 6 C-10.66 7.98 -11.32 9.96 -12 12 C-14.97 11.505 -14.97 11.505 -18 11 C-17.2110117 7.2702371 -16.4518633 4.56847318 -14.0625 1.5625 C-9.43939358 -0.79622777 -5.08229895 -0.90809846 0 0 Z M-11.6875 20.625 C-13.27019709 23.00432476 -13.27019709 23.00432476 -12.875 26.125 C-12.21691176 29.09681373 -12.21691176 29.09681373 -10 31 C-4.62709071 31.670718 -4.62709071 31.670718 0 29.5 C1.44831655 25.87920862 1.19435828 22.88716564 1 19 C-5.62959348 18.41921302 -5.62959348 18.41921302 -11.6875 20.625 Z " fill="#D594B4" transform="translate(1127,1523)"/>
<path d="M0 0 C1.65 0 3.3 0 5 0 C5.33 4.62 5.66 9.24 6 14 C6.66 13.67 7.32 13.34 8 13 C13.20671061 12.35492081 16.81709835 12.0826477 21.0625 15.375 C24.01050526 19.36907164 24.11994418 21.3723931 24.09765625 26.3203125 C24.09443359 27.57714844 24.09121094 28.83398438 24.08789062 30.12890625 C24.07951172 31.44761719 24.07113281 32.76632812 24.0625 34.125 C24.05748489 35.46484211 24.05292201 36.804686 24.04882812 38.14453125 C24.03701086 41.42973206 24.02053617 44.71484397 24 48 C22.35 48 20.7 48 19 48 C18.98018066 47.19256348 18.96036133 46.38512695 18.93994141 45.55322266 C18.84494101 41.91014125 18.73516088 38.26765314 18.625 34.625 C18.5940625 33.35398437 18.563125 32.08296875 18.53125 30.7734375 C18.49257812 29.56171875 18.45390625 28.35 18.4140625 27.1015625 C18.3826416 25.98088379 18.3512207 24.86020508 18.31884766 23.70556641 C18.26588797 20.85289588 18.26588797 20.85289588 16 19 C14.09178939 18.64486621 14.09178939 18.64486621 12 18.6875 C10.948125 18.66236328 10.948125 18.66236328 9.875 18.63671875 C9.25625 18.75660156 8.6375 18.87648438 8 19 C5.70825923 22.43761116 5.70475953 23.92071615 5.5859375 27.98046875 C5.54726562 29.14384766 5.50859375 30.30722656 5.46875 31.50585938 C5.4378125 32.72080078 5.406875 33.93574219 5.375 35.1875 C5.31699219 37.02731445 5.31699219 37.02731445 5.2578125 38.90429688 C5.16343897 41.93604656 5.07785451 44.96778841 5 48 C3.35 48 1.7 48 0 48 C0 32.16 0 16.32 0 0 Z " fill="#D492B3" transform="translate(1214,1510)"/>
<path d="M0 0 C2.89683868 2.2015974 4.39297231 3.78594462 6 7 C6.08543895 9.10528933 6.10714725 11.21331157 6.09765625 13.3203125 C6.09443359 14.57714844 6.09121094 15.83398438 6.08789062 17.12890625 C6.07951172 18.44761719 6.07113281 19.76632812 6.0625 21.125 C6.05748489 22.46484211 6.05292201 23.804686 6.04882812 25.14453125 C6.03701086 28.42973206 6.02053617 31.71484397 6 35 C5.21238281 34.81566406 4.42476562 34.63132812 3.61328125 34.44140625 C1.05698979 33.74042177 1.05698979 33.74042177 -0.8125 34.9375 C-4.17641076 36.57139951 -7.38667786 36.65192376 -11 36 C-14.42215793 34.07114735 -16.46291808 32.66857474 -17.6953125 28.83984375 C-18.28683771 25.07044371 -18.25447369 22.62948755 -16.8125 19.0625 C-14.10556337 15.98219281 -12.10051564 15.07127692 -7.984375 14.8046875 C-6.91703125 14.82789063 -5.8496875 14.85109375 -4.75 14.875 C-3.67234375 14.89304687 -2.5946875 14.91109375 -1.484375 14.9296875 C-0.25460937 14.96449219 -0.25460937 14.96449219 1 15 C0.69181644 13.68647977 0.37832335 12.37420428 0.0625 11.0625 C-0.11152344 10.33160156 -0.28554687 9.60070313 -0.46484375 8.84765625 C-0.83887569 7.00030102 -0.83887569 7.00030102 -2 6 C-4.67058851 5.85884839 -7.32432238 5.95752893 -10 6 C-10.66 7.98 -11.32 9.96 -12 12 C-14.97 11.505 -14.97 11.505 -18 11 C-17.2110117 7.2702371 -16.4518633 4.56847318 -14.0625 1.5625 C-9.43939358 -0.79622777 -5.08229895 -0.90809846 0 0 Z M-11.6875 20.625 C-13.27019709 23.00432476 -13.27019709 23.00432476 -12.875 26.125 C-12.21691176 29.09681373 -12.21691176 29.09681373 -10 31 C-4.62709071 31.670718 -4.62709071 31.670718 0 29.5 C1.44831655 25.87920862 1.19435828 22.88716564 1 19 C-5.62959348 18.41921302 -5.62959348 18.41921302 -11.6875 20.625 Z " fill="#D594B4" transform="translate(1294,1523)"/>
<path d="M0 0 C3.00197464 1.80118478 4.45166366 2.90332732 6 6 C6.08559118 8.17824961 6.10713412 10.35915255 6.09765625 12.5390625 C6.09443359 13.84101562 6.09121094 15.14296875 6.08789062 16.484375 C6.07953466 17.86458399 6.07106971 19.24479232 6.0625 20.625 C6.05748501 22.01301926 6.0529221 23.40104022 6.04882812 24.7890625 C6.03700976 28.19275132 6.02053434 31.59635439 6 35 C5.236875 34.79375 4.47375 34.5875 3.6875 34.375 C0.78114056 33.66608797 0.78114056 33.66608797 -2 36 C-7.35002483 36.43145362 -10.64735364 36.45651329 -15 33 C-17.6790573 28.98141405 -17.69610694 25.72358279 -17 21 C-15.20606332 18.12970131 -14.01736724 16.50868362 -11 15 C-8.95944995 14.92934383 -6.91665743 14.91578024 -4.875 14.9375 C-3.77929688 14.94652344 -2.68359375 14.95554687 -1.5546875 14.96484375 C-0.71164062 14.97644531 0.13140625 14.98804688 1 15 C0.855625 13.700625 0.71125 12.40125 0.5625 11.0625 C0.44068359 9.96615234 0.44068359 9.96615234 0.31640625 8.84765625 C0.18113386 6.98859771 0.18113386 6.98859771 -1 6 C-5.01657143 5.77081758 -5.01657143 5.77081758 -9 6 C-11.1385485 8.1385485 -11.42655063 9.13275314 -12 12 C-13.65 11.67 -15.3 11.34 -17 11 C-16.74560763 7.35370935 -16.13553242 5.20781637 -14.125 2.125 C-9.54553443 -0.98903659 -5.38276913 -0.89712819 0 0 Z M-10.80078125 20.32421875 C-12.65747311 22.91874907 -12.38675552 24.90595582 -12 28 C-11.06402685 30.01951062 -11.06402685 30.01951062 -9 31 C-4.63293092 31.38991688 -2.69486103 31.46324069 1 29 C1.36416047 26.56306689 1.36416047 26.56306689 1.1875 23.875 C1.14689453 22.50988281 1.14689453 22.50988281 1.10546875 21.1171875 C1.05326172 20.06917969 1.05326172 20.06917969 1 19 C-0.60332791 18.91878076 -2.20784026 18.86070866 -3.8125 18.8125 C-4.70582031 18.77769531 -5.59914063 18.74289062 -6.51953125 18.70703125 C-9.03460078 18.7970802 -9.03460078 18.7970802 -10.80078125 20.32421875 Z " fill="#D593B3" transform="translate(737,1523)"/>
<path d="M0 0 C3.48242391 2.52646441 4.65226822 3.95680465 6 8 C6.25257326 11.28727925 6.23124619 14.57901724 6.25 17.875 C6.270625 18.77347656 6.29125 19.67195313 6.3125 20.59765625 C6.34166815 25.53436529 6.32348215 29.0627216 3 33 C0.0737133 35.78636031 -1.92497395 36.41209577 -5.9375 36.375 C-10.06433864 36.241288 -12.79840998 35.80139127 -16 33 C-18.87732773 28.31559337 -18.36804022 23.46315358 -18.375 18.125 C-18.39949219 17.14402344 -18.42398438 16.16304687 -18.44921875 15.15234375 C-18.47362859 9.12311379 -18.05594847 5.56859624 -14 1 C-9.80642919 -1.09678541 -4.55524691 -0.55270329 0 0 Z M-13 8 C-13.45942166 10.16726503 -13.45942166 10.16726503 -13.3984375 12.5625 C-13.40230469 13.44164062 -13.40617188 14.32078125 -13.41015625 15.2265625 C-13.39855469 16.14179687 -13.38695312 17.05703125 -13.375 18 C-13.38660156 18.91523437 -13.39820313 19.83046875 -13.41015625 20.7734375 C-13.40628906 21.65257812 -13.40242187 22.53171875 -13.3984375 23.4375 C-13.39505371 24.24058594 -13.39166992 25.04367187 -13.38818359 25.87109375 C-12.90961985 28.49566974 -12.08124307 29.3806541 -10 31 C-8.05795033 31.5080382 -8.05795033 31.5080382 -6 31.4375 C-4.9790625 31.46650391 -4.9790625 31.46650391 -3.9375 31.49609375 C-1.88859898 31.12204331 -1.88859898 31.12204331 -0.2734375 29.53515625 C1.63663051 25.73259753 1.43531785 22.19544158 1.375 18 C1.38660156 17.19304687 1.39820313 16.38609375 1.41015625 15.5546875 C1.39286396 12.06164415 1.31009844 9.61734322 -0.2734375 6.46484375 C-2.34486253 4.70741301 -3.30938211 4.48606199 -6 4.5625 C-6.680625 4.56378906 -7.36125 4.56507812 -8.0625 4.56640625 C-10.58779533 5.13154291 -11.39313149 5.98764171 -13 8 Z " fill="#D593B3" transform="translate(877,1523)"/>
<path d="M0 0 C0.99 0 1.98 0 3 0 C3.66 0.66 4.32 1.32 5 2 C5.99 1.34 6.98 0.68 8 0 C12.88516144 -0.71207438 16.8100735 -0.72852643 21.0625 1.875 C24.34194592 5.47181165 24.11852154 7.74004606 24.09765625 12.5390625 C24.09443359 13.84101562 24.09121094 15.14296875 24.08789062 16.484375 C24.07953466 17.86458399 24.07106971 19.24479232 24.0625 20.625 C24.05748501 22.01301926 24.0529221 23.40104022 24.04882812 24.7890625 C24.03700976 28.19275132 24.02053434 31.59635439 24 35 C22.35 35 20.7 35 19 35 C18.67 25.43 18.34 15.86 18 6 C14.7 6 11.4 6 8 6 C6.16780354 7.83219646 6.76098672 10.75713741 6.68359375 13.22265625 C6.64169922 14.48271484 6.59980469 15.74277344 6.55664062 17.04101562 C6.51682404 18.38150736 6.47711186 19.7220022 6.4375 21.0625 C6.39431958 22.40691523 6.35070544 23.7513166 6.30664062 25.09570312 C6.20014642 28.3970234 6.0981354 31.69842236 6 35 C4.02 35 2.04 35 0 35 C0 23.45 0 11.9 0 0 Z " fill="#D594B3" transform="translate(808,1523)"/>
<path d="M0 0 C1.65 0 3.3 0 5 0 C7.64 7.59 10.28 15.18 13 23 C16.30398796 14.76483919 16.30398796 14.76483919 19.1875 6.4375 C20.89138577 1.10861423 20.89138577 1.10861423 22 0 C23.66617115 -0.04063832 25.33388095 -0.042721 27 0 C25.08737087 6.58492669 22.98274161 13.06241685 20.64453125 19.5078125 C20.33803146 20.35930878 20.03153168 21.21080505 19.71574402 22.08810425 C18.75047818 24.76797224 17.78155992 27.44650195 16.8125 30.125 C16.15144905 31.95824549 15.49063964 33.7915781 14.83007812 35.625 C13.22283783 40.08434357 11.61232393 44.54249208 10 49 C8.35 49 6.7 49 5 49 C6.72424914 40.58052812 6.72424914 40.58052812 8.1875 37.5 C10.64225776 29.94689921 6.66536037 21.67440316 3.9375 14.6875 C3.19075054 12.75616336 2.44961802 10.82264301 1.71484375 8.88671875 C1.38605225 8.04326904 1.05726074 7.19981934 0.71850586 6.33081055 C0 4 0 4 0 0 Z " fill="#D594B4" transform="translate(1137,1523)"/>
<path d="M0 0 C1.65 0 3.3 0 5 0 C8.08491206 7.6347265 11.05498828 15.31024717 14 23 C16.64 15.41 19.28 7.82 22 0 C23.65 0 25.3 0 27 0 C26.4053724 5.92332892 24.7307622 11.05442968 22.65625 16.6171875 C22.32709595 17.51494904 21.99794189 18.41271057 21.65881348 19.337677 C20.96605433 21.22305833 20.26999093 23.1072285 19.57080078 24.99023438 C18.49666376 27.88398791 17.43306244 30.78144899 16.37109375 33.6796875 C15.69592108 35.51324505 15.02016072 37.34658632 14.34375 39.1796875 C14.02394165 40.04939178 13.7041333 40.91909607 13.37463379 41.81515503 C13.07762573 42.61333649 12.78061768 43.41151794 12.47460938 44.23388672 C12.2133728 44.93891327 11.95213623 45.64393982 11.6829834 46.37033081 C11 48 11 48 10 49 C8.33382885 49.04063832 6.66611905 49.042721 5 49 C5.37253906 47.99839844 5.74507812 46.99679687 6.12890625 45.96484375 C6.60757872 44.62268369 7.08539809 43.28021916 7.5625 41.9375 C7.80935547 41.28072266 8.05621094 40.62394531 8.31054688 39.94726562 C11.54822385 30.69024555 7.72359449 22.96887043 4.4375 14.1875 C3.60010979 11.93201044 2.76533351 9.6755481 1.93359375 7.41796875 C1.56290771 6.42563232 1.19222168 5.4332959 0.81030273 4.41088867 C0 2 0 2 0 0 Z " fill="#D594B4" transform="translate(747,1523)"/>
<path d="M0 0 C1.98 0 3.96 0 6 0 C6 2.64 6 5.28 6 8 C8.64 8 11.28 8 14 8 C14 9.65 14 11.3 14 13 C11.36 13 8.72 13 6 13 C6.33 20.92 6.66 28.84 7 37 C9.31 37.66 11.62 38.32 14 39 C14 40.32 14 41.64 14 43 C6.8173913 43.48695652 6.8173913 43.48695652 3.0625 41.25 C-0.18937075 37.70250464 -0.12489663 34.48222035 -0.09765625 29.796875 C-0.09443359 28.8171875 -0.09121094 27.8375 -0.08789062 26.828125 C-0.07951172 25.81234375 -0.07113281 24.7965625 -0.0625 23.75 C-0.05798828 22.71875 -0.05347656 21.6875 -0.04882812 20.625 C-0.03706088 18.08327427 -0.02062011 15.54166681 0 13 C-1.98 13 -3.96 13 -6 13 C-6 11.35 -6 9.7 -6 8 C-4.02 8 -2.04 8 0 8 C0 5.36 0 2.72 0 0 Z " fill="#D693B4" transform="translate(699,1515)"/>
<path d="M0 0 C0 1.65 0 3.3 0 5 C-2.31 5.33 -4.62 5.66 -7 6 C-7.66 8.31 -8.32 10.62 -9 13 C-6.36 13 -3.72 13 -1 13 C-1 14.65 -1 16.3 -1 18 C-3.64 18 -6.28 18 -9 18 C-9 27.9 -9 37.8 -9 48 C-10.65 48 -12.3 48 -14 48 C-14 38.1 -14 28.2 -14 18 C-15.98 18 -17.96 18 -20 18 C-20 16.35 -20 14.7 -20 13 C-18.02 13 -16.04 13 -14 13 C-14.0825 11.948125 -14.165 10.89625 -14.25 9.8125 C-13.96269651 5.43112175 -13.05154419 4.05154419 -10 1 C-6.78548731 -0.60725635 -3.56387464 -0.05748185 0 0 Z " fill="#D593B3" transform="translate(856,1510)"/>
<path d="M0 0 C1.65 0 3.3 0 5 0 C5 2.64 5 5.28 5 8 C7.97 8 10.94 8 14 8 C14 9.65 14 11.3 14 13 C11.03 13 8.06 13 5 13 C5.08058849 16.79255672 5.19345317 20.58347092 5.3125 24.375 C5.33505859 25.45523437 5.35761719 26.53546875 5.38085938 27.6484375 C5.41630859 28.6796875 5.45175781 29.7109375 5.48828125 30.7734375 C5.51446533 31.72653809 5.54064941 32.67963867 5.56762695 33.66162109 C5.71031006 34.43328613 5.85299316 35.20495117 6 36 C8.91765 37.9451 10.62537285 38.45276317 14 39 C14 40.32 14 41.64 14 43 C12.60696395 43.13657216 11.20993879 43.23271149 9.8125 43.3125 C9.03519531 43.37050781 8.25789063 43.42851563 7.45703125 43.48828125 C3.45358849 42.69268452 2.29195884 41.38951659 0 38 C-0.61275057 33.71302531 -0.46977857 29.5066116 -0.3125 25.1875 C-0.28994141 24.01767578 -0.26738281 22.84785156 -0.24414062 21.64257812 C-0.18532091 18.76041231 -0.10317141 15.88086319 0 13 C-1.98 13 -3.96 13 -6 13 C-6 11.35 -6 9.7 -6 8 C-4.02 8 -2.04 8 0 8 C0 5.36 0 2.72 0 0 Z " fill="#D593B3" transform="translate(1089,1515)"/>
<path d="M0 0 C1.65 0 3.3 0 5 0 C5 15.84 5 31.68 5 48 C3.35 48 1.7 48 0 48 C0 32.16 0 16.32 0 0 Z " fill="#D592B2" transform="translate(795,1510)"/>
<path d="M0 0 C2.475 0.99 2.475 0.99 5 2 C5.99 1.34 6.98 0.68 8 0 C10.33199388 -0.07905064 12.66832622 -0.08798769 15 0 C15 1.65 15 3.3 15 5 C14.43410156 5.12117188 13.86820313 5.24234375 13.28515625 5.3671875 C12.55167969 5.53476563 11.81820312 5.70234375 11.0625 5.875 C10.33160156 6.03742188 9.60070312 6.19984375 8.84765625 6.3671875 C6.79299706 6.82961523 6.79299706 6.82961523 6 9 C5.84621148 10.95774069 5.75028537 12.92017352 5.68359375 14.8828125 C5.64169922 16.04941406 5.59980469 17.21601562 5.55664062 18.41796875 C5.49766602 20.25294922 5.49766602 20.25294922 5.4375 22.125 C5.39431641 23.35605469 5.35113281 24.58710937 5.30664062 25.85546875 C5.20031296 28.90352853 5.09828219 31.9516719 5 35 C3.35 35 1.7 35 0 35 C0 23.45 0 11.9 0 0 Z " fill="#D492B2" transform="translate(890,1523)"/>
<path d="M0 0 C1.98 0 3.96 0 6 0 C5.57910004 5.60461531 5.08386889 10.72086547 3 16 C2.01 16 1.02 16 0 16 C0 10.72 0 5.44 0 0 Z " fill="#D593B3" transform="translate(1020,1552)"/>
</svg>
